<svg xmlns="http://www.w3.org/2000/svg" width="95.146" height="95.146" viewBox="0 0 95.146 95.146"><defs><style>.a{fill:#4d834c;}.b{fill:#fff;}</style></defs><g transform="translate(-191.301 -11.301)"><path class="a" d="M47.573,0A47.573,47.573,0,1,1,0,47.573,47.573,47.573,0,0,1,47.573,0Z" transform="translate(191.301 11.301)"/><path class="b" d="M700.549,52.362a20.356,20.356,0,0,0-27.134-9.48A25.4,25.4,0,0,0,661.567,76.8a31.755,31.755,0,0,0,42.4,14.812,39.7,39.7,0,0,0,18.515-52.995l.016-.008a39.709,39.709,0,0,0-75.475,17.248c-.009,4.354,5.3,4.69,5.632-.056.965-18.793,15.255-34.072,34.072-34.072A34.075,34.075,0,0,1,717.42,41l-.014.007a34.064,34.064,0,0,1-15.889,45.478,27.252,27.252,0,0,1-36.382-12.711A21.8,21.8,0,0,1,675.3,44.667,17.459,17.459,0,0,1,698.588,52.8C699.949,55.6,701.73,54.779,700.549,52.362Z" transform="translate(-447.849 3.017)"/><path class="b" d="M705.458,64.211s-5.577-2.779-8.84-.452c-5.436,3.88-5.312,11.326-8.374,19.247-2.708,7.008-10.524,8.231-8.561,11.31-5.184-1.627-8.652-6.692-8.652-16.917,0-8.253,3.748-14.777,10.675-18.405C690.357,54.463,701.541,54.112,705.458,64.211Z" transform="translate(-454.26 -7.612)"/></g></svg>