<svg xmlns="http://www.w3.org/2000/svg" width="50" height="50" viewBox="0 0 50 50"><defs><style>.a{fill:none;}.b{fill:#4d834c;}</style></defs><g transform="translate(-2079 -808)"><rect class="a" width="50" height="50" transform="translate(2079 808)"/><path class="b" d="M-3667.841-1068.681a17.289,17.289,0,0,1-3.458-.349,17.075,17.075,0,0,1-3.221-1,17.153,17.153,0,0,1-2.915-1.582,17.292,17.292,0,0,1-2.54-2.1,17.272,17.272,0,0,1-2.1-2.54,17.145,17.145,0,0,1-1.582-2.915,17.1,17.1,0,0,1-1-3.221,17.278,17.278,0,0,1-.349-3.458,17.276,17.276,0,0,1,.349-3.458,17.069,17.069,0,0,1,1-3.221,17.145,17.145,0,0,1,1.582-2.915,17.264,17.264,0,0,1,2.1-2.54,17.26,17.26,0,0,1,2.54-2.1,17.144,17.144,0,0,1,2.915-1.582,17.075,17.075,0,0,1,3.221-1,17.289,17.289,0,0,1,3.458-.349,17.286,17.286,0,0,1,3.458.349,17.078,17.078,0,0,1,3.221,1,17.154,17.154,0,0,1,2.915,1.582,17.288,17.288,0,0,1,2.54,2.1,17.281,17.281,0,0,1,2.1,2.54,17.14,17.14,0,0,1,1.582,2.915,17.076,17.076,0,0,1,1,3.221,17.277,17.277,0,0,1,.349,3.458,17.278,17.278,0,0,1-.349,3.458,17.081,17.081,0,0,1-1,3.221,17.14,17.14,0,0,1-1.582,2.915,17.286,17.286,0,0,1-2.1,2.539,17.288,17.288,0,0,1-2.54,2.1,17.171,17.171,0,0,1-2.915,1.582,17.086,17.086,0,0,1-3.221,1A17.286,17.286,0,0,1-3667.841-1068.681Zm-1.169-22.026a2.2,2.2,0,0,0-1.737.91,3.712,3.712,0,0,0-.717,2.28,4.656,4.656,0,0,0,.407,1.95l-1.638,6.715a12.553,12.553,0,0,0-.047,4.62c0,.027.007.048.009.062a.161.161,0,0,0,.165.135.175.175,0,0,0,.137-.064l.029-.036v0a12.789,12.789,0,0,0,2.267-4c.152-.532.865-3.27.9-3.386h0a2.8,2.8,0,0,0,1.2,1.075,4.252,4.252,0,0,0,1.9.462c3.978,0,6.865-3.551,6.865-8.444,0-3.469-3.015-7.058-8.056-7.058-5.692,0-9.093,3.914-9.093,7.7,0,2.3.974,4.062,2.606,4.707a.592.592,0,0,0,.217.044.426.426,0,0,0,.42-.352l.26-.99a.584.584,0,0,0-.182-.686,3.194,3.194,0,0,1-.613-1.025,4.032,4.032,0,0,1-.227-1.392,5.876,5.876,0,0,1,.436-2.235,5.708,5.708,0,0,1,1.249-1.882,5.864,5.864,0,0,1,1.972-1.3,6.932,6.932,0,0,1,2.607-.484,6.816,6.816,0,0,1,2.269.358,4.666,4.666,0,0,1,1.66.99,4.187,4.187,0,0,1,1.019,1.5,5,5,0,0,1,.347,1.876,10.687,10.687,0,0,1-.292,2.522,7.621,7.621,0,0,1-.822,2.085,4.418,4.418,0,0,1-1.274,1.419,2.872,2.872,0,0,1-1.647.524,2.271,2.271,0,0,1-.966-.208,1.972,1.972,0,0,1-.718-.563,1.836,1.836,0,0,1-.324-1.6c.139-.565.324-1.148.5-1.711a10.025,10.025,0,0,0,.62-2.66A1.674,1.674,0,0,0-3669.01-1090.707Z" transform="translate(5772 1919)"/></g></svg>