<svg xmlns="http://www.w3.org/2000/svg" width="50" height="50" viewBox="0 0 50 50"><defs><style>.a{fill:none;}.b{fill:#4d834c;}</style></defs><g transform="translate(-2079 -808)"><rect class="a" width="50" height="50" transform="translate(2079 808)"/><g transform="translate(2091.201 773.064)"><g transform="translate(0 48)"><path class="b" d="M28.72,50.762a12.276,12.276,0,0,1-3.393.93,5.855,5.855,0,0,0,2.59-3.254,11.767,11.767,0,0,1-3.734,1.425A5.887,5.887,0,0,0,14,53.889a6.063,6.063,0,0,0,.136,1.343A16.666,16.666,0,0,1,2,49.073a5.889,5.889,0,0,0,1.809,7.869,5.815,5.815,0,0,1-2.66-.725v.065a5.915,5.915,0,0,0,4.717,5.785,5.876,5.876,0,0,1-1.544.194,5.206,5.206,0,0,1-1.115-.1,5.944,5.944,0,0,0,5.5,4.1,11.831,11.831,0,0,1-7.3,2.511A11.028,11.028,0,0,1,0,68.693a16.576,16.576,0,0,0,9.032,2.642c10.835,0,16.758-8.975,16.758-16.754,0-.26-.009-.512-.022-.761A11.746,11.746,0,0,0,28.72,50.762Z" transform="translate(0 -48)"/></g></g></g></svg>